<?xml version="1.0" encoding="UTF-8"?>
<svg version="1.1" viewBox="0 0 2048 1171" width="519" height="297" xmlns="http://www.w3.org/2000/svg">
<path transform="translate(0)" d="m0 0h2048v1171h-2048z" fill="#FDFDFD"/>
<path transform="translate(1433,216)" d="m0 0 7 1 3 10v156l-2 147-1 89-1 43-52 1h-28l-10-1-1-4v-13l-10 3-17 8-14 8-11 6-8 4h-56l-8-3-23-13-13-8-11-8-4-4v-2h-2v-2h-2l-12-12v-2h-2v-2h-2l-6-7-9-19-6-16-3-15-2-16v-38l6-26 6-15 12-22 7-9 4-5 11-9 7-7 12-9 19-9 17-7 13-3h35l17 5 21 8 26 12 5 3v-36l2-122 1-38 1-1z" fill="#F93A3B"/>
<path transform="translate(312,228)" d="m0 0h84l17 3 30 7 24 7 22 10 6 4 2 7-1 18-12 25-17 34-3 4-17-2-17-4-30-8-6-1h-45l-16 4-22 7-15 6-13 9-8 6-6 8-14 20-6 10-5 16-3 11v36l4 14 11 32 6 8 12 14 11 11 25 12 15 6 15 1h44l33-1 30-10h8l5 2 8 1 3 5 8 16 7 16 8 16 3 12v13l-5 4-21 11-22 10-10 5-21 5-10 2-51 4h-21l-39-9-21-7-28-13-14-9-10-6-17-12-5-4v-2l-4-2-12-12-9-11-8-11-8-12-8-13-8-16-13-30-3-12-3-40v-28l9-40 6-15 12-22 10-18 9-12 29-31 9-9 25-16 16-10 34-14 20-8z" fill="#F93A3B"/>
<path transform="translate(631,386)" d="m0 0h45l13 4 13 6 21 10 10 6 4 2 2-13 2-7h89l1 1 1 12-1 254-1 1-59 1h-29l-2-3-3-13v-3l-10 4-15 8-23 13-12 5h-55l-14-7-22-12-13-7-14-12-11-11-9-13-9-16-6-12-4-17-3-20v-20l4-29 3-18 6-13 9-17 7-9 6-5 9-11 7-7 7-8 14-8 19-9 10-4z" fill="#F93A3B"/>
<path transform="translate(1778,386)" d="m0 0h41l25 6 19 5 16 8 15 8 13 9 13 12 8 7 8 9 11 17 6 12 5 18 3 15v44l-3 10-6 13-7 16-11 15-10 13-8 9-8 7-13 10-16 8-14 6-11 4-25 5-11 2h-49l-21-5-21-7-16-10-19-14-13-10-10-9-7-11-10-18-9-17-2-7-1-10v-51l3-12 6-15 8-18 11-13 7-8 14-14 11-8 13-10 27-11 15-5z" fill="#F93A3B"/>
<path transform="translate(1190,831)" d="m0 0h19l5 4 5 9 5 37 3 25 4 53 1 2 8-16 8-17 15-38 11-27 8-16 7-11 26-1 5 5 29 58 9 20 15 35 2 4 1-10 3-98 1-10 5-6 6-2h13l6 2 11 12 10 11 11 14 14 21 5 7v2h4l2-6 7-56 2-3h34l1 1v134l-1 11-5 5h-25l-16-16-7-8-10-12-12-19-9-15-3-2v9l-6 52-3 9-7 2h-61l-5-5-8-14-1-8-32 2-22 2-7 17-7 5-3 1h-62l-3-5-5-13-1-9v-54l-1-1h-5l-4 16-4 20-8 20-8 17-9 3-10 2-6-2-5-4-14-41-5-12h-2l-2 15-2 25-8 16-4 6-3 1h-60l-4-2v-2l-4-2-21-18-9-12-3-1v9l-3 18-4 5-10 5h-17l-8-2-1-2-1-60v-47l1-39 2-1h66l10 5 13 8 8 9 4 10v27l-4 8-7 10-3 5v8l4 14 9 13 10 13 3 3 3-14 11-107 2-10 1-1 37-1 8 15 11 26 13 32 6-12 13-31 10-24 4-6 4-3z" fill="#2D0F0C"/>
<path transform="translate(1043,386)" d="m0 0h36l15 5 20 9 2 6-4 19-14 29-13 26-2 1-25-1-32-2h-9l-11 6-6 3h-2l-2 5-7 14-2 5-1 7-3 86-2 36-3 22-25 1h-65l-1-1v-266l3-2h84l3 9 4 15v2l16-8 11-7 17-10 14-8z" fill="#F93A3B"/>
<path transform="translate(1503,394)" d="m0 0h92l2 2v233l-2 23-2 9-1 1-46 1h-43l-1-44v-218z" fill="#F93A3B"/>
<path transform="translate(847,831)" d="m0 0h15l13 1 16 7 17 9 11 13 8 15 3 8 1 18v17l-1 19-4 8-10 15-17 13-11 7-10 4-5 1h-39l-7-3-27-21-10-13-5-10-5-17v-28l12-27 4-8 10-8 18-13 8-4 7-2z" fill="#2E0F0C"/>
<path transform="translate(564,835)" d="m0 0h69l15 11 8 7 6 10 1 9-1 27-4 8-7 11-7 2 7 14 6 10 9 10 12 14 4 7v10l-2 1h-32l-5-3-11-10-11-9-10-9-7-9-2 13-2 18-3 5-4 3-3 1h-26l-1-1v-149z" fill="#2F0F0C"/>
<path transform="translate(1266,469)" d="m0 0h43l16 9 7 7 12 16 4 7v47l-3 6-9 11-9 9-17 8-6 2h-31l-10-2-12-5-7-7-7-8-7-10-4-10v-34l4-10 4-5 10-13 8-8 9-7z" fill="#FDFDFD"/>
<path transform="translate(1785,469)" d="m0 0h32l9 4 2 1v2l4 2 10 8 10 10 7 9 2 3-1 22-2 23-3 8-7 11-6 7-21 11-3 1h-37l-7-3-11-6-10-8-9-8-3-6-2-11v-41l10-15 6-8 5-4 15-8 6-3z" fill="#FDFDFD"/>
<path transform="translate(658,469)" d="m0 0h39l10 6 10 7 9 8 7 8 7 9 1 8-4 40-7 14-10 11-12 7-11 4h-31l-12-3-15-8-7-8-9-11-3-6-2-9v-34l2-7 14-20 20-14z" fill="#FDFDFD"/>
<path transform="translate(1590,831)" d="m0 0h13l25 1 16 3 1 1v34l-5 2-49 4-7 3-12 7-2 5-3 26 5 10 8 12 4 2 6 1 52 3 3 2v31l-3 5-7 3h-55l-7-3-15-10-11-7-8-7-9-13-7-15-1-4v-27l4-13 6-16 6-10 13-15 14-8 9-4z" fill="#2E0F0C"/>
<path transform="translate(339,835)" d="m0 0h74l9 8 14 11 5 6v42l-4 7-10 12-10 5-13 4-6 1h-28v50l-2 4-4 1h-25l-1-1v-149z" fill="#30100D"/>
<path transform="translate(1666,836)" d="m0 0h83l2 4v27l-1 1-45 4v18l32 1 13 7 2 4-1 19-2 3-19 6-7 1h-19l1 18 45 4 1 1v22l-3 6-3 3-3 1h-73l-4-2-1-2v-142z" fill="#2E0F0C"/>
<path transform="translate(458,835)" d="m0 0h85l1 5v26l-2 2h-46v22l33 1 10 5 4 1 1 2v23l-2 4-5 1h-44v22l1 4 50 1v17l-2 9-5 5-3 1h-71l-6-2-1-28v-114z" fill="#30100D"/>
<path transform="translate(1541,232)" d="m0 0h27l9 5 7 7 10 8 6 8 4 8 1 3 1 18-2 16-7 11-9 11-6 7-7 4-11 5h-28l-8-4-19-14-7-7-4-6-4-12v-23l3-10 8-12 9-10 12-10 5-2z" fill="#F93A3B"/>
<path transform="translate(690,835)" d="m0 0h80l5 2 1 2v26l-1 2-13 2-35 3-1 1v20l1 1h45l1 5v22l-3 3-11 3h-34v39l-4 12-3 7-3 1h-22l-3-3-1-3v-143z" fill="#2F0F0C"/>
<path transform="translate(849,867)" d="m0 0h11l11 2 14 9 6 8 3 6 1 7-2 17-1 18-2 5-11 9-9 3-17 2h-12l-16-10-4-6-1-4v-41l7-14 6-7 7-3z" fill="#FDFDFD"/>
<path transform="translate(373,864)" d="m0 0h25l7 7v23l-2 4-4 1h-27l-2-1v-31z" fill="#FDFDFD"/>
<path transform="translate(599,864)" d="m0 0 17 2 8 2 2 3v24l-2 3-3 1h-20l-2-1-2-11-1-7v-12z" fill="#FDFDFD"/>
<path transform="translate(982,864)" d="m0 0h20l10 10 1 3-7 20-2 2h-19l-3-1z" fill="#FDFDFD"/>
<path transform="translate(1297,892)" d="m0 0 4 1 12 6 4 20-1 3h-21l-1-1 1-14z" fill="#FDFDFD"/>
</svg>
